<svg xmlns="http://www.w3.org/2000/svg" viewBox="-4 21 459 433" role="img" aria-label="Danielly Curione — Psicologia e Desenvolvimento Humano"><g fill="currentColor" fill-rule="evenodd"><path d="M223.25 35Q223 35 222.5 35.5Q222 36 221.25 36Q220.5 36 219.25 37.25Q218 38.5 218 39.25Q218 40 217.5 40.5Q217 41 217 42.5Q217 44 217.5 44.5Q218 45 218 45.75Q218 46.5 219 47.25Q220 48 220 125.25Q220 202.5 219.75 202.75Q219.5 203 207.75 202.5Q196 202 196 201.75Q196 201.5 194.25 201.5Q192.5 201.5 192.5 201.25Q192.5 201 189.75 201Q187 201 187 200.75Q187 200.5 185.75 200.5Q184.5 200.5 184.5 200.25Q184.5 200 182.5 200Q180.5 200 179.75 199.5Q179 199 177.25 199Q175.5 199 174.75 198.5Q174 198 172.75 198Q171.5 198 170.75 197.5Q170 197 169 197Q168 197 167.5 196.5Q167 196 166 196Q165 196 164.5 195.5Q164 195 163 195Q162 195 161.5 194.5Q161 194 159 193.5Q157 193 153 191Q149 189 148.75 188.5Q148.5 188 148 188Q147.5 188 147.25 187.5Q147 187 146 186.75Q145 186.5 144.5 185.75Q144 185 142 184Q140 183 140 182.5Q140 182 139.5 182Q139 182 137.75 180.5Q136.5 179 136 179Q135.5 179 134.25 177.75Q133 176.5 133 176Q133 175.5 131.5 174.25Q130 173 130 172.5Q130 172 129.25 171.5Q128.5 171 128.5 170.5Q128.5 170 127.25 168.75Q126 167.5 125.5 166Q125 164.5 124.5 164.25Q124 164 123 162Q122 160 122 159.25Q122 158.5 121.5 158.25Q121 158 121 157Q121 156 120.5 155.75Q120 155.5 120 154.5Q120 153.5 119.5 153Q119 152.5 118.5 149.5Q118 146.5 117.5 145.75Q117 145 116.75 142Q116.5 139 116.25 139Q116 139 115.75 130Q115.5 121 115.75 121Q116 121 116 118.25Q116 115.5 116.5 114.5Q117 113.5 117 111.75Q117 110 117.5 109.25Q118 108.5 118 107.25Q118 106 118.5 105.5Q119 105 119 104Q119 103 119.5 102.5Q120 102 120.5 100Q121 98 121.5 97.75Q122 97.5 122 96.75Q122 96 122.5 95Q123 94 123.5 93.75Q124 93.5 124 92.75Q124 92 124.5 91.75Q125 91.5 125 91Q125 90.5 125.5 90.25Q126 90 127 88Q128 86 129 85.25Q130 84.5 130 84Q130 83.5 131.5 82.25Q133 81 133 80.5Q133 80 133.5 80Q134 80 134 79.5Q134 79 134.5 79Q135 79 136.25 77.5Q137.5 76 138 76Q138.5 76 139.25 75Q140 74 140.5 74Q141 74 141.25 73.5Q141.5 73 142 73Q142.5 73 144.25 71.5Q146 70 146.75 70Q147.5 70 147.75 69.5Q148 69 148.75 69Q149.5 69 149.75 68.5Q150 68 150.75 68Q151.5 68 151.75 67.5Q152 67 153 67Q154 67 156 66Q158 65 159.25 65Q160.5 65 161.25 64.5Q162 64 163.75 64Q165.5 64 165.5 63.75Q165.5 63.5 166.75 63.5Q168 63.5 168 63.25Q168 63 172 62.75Q176 62.5 176.75 61.25Q177.5 60 177.5 59Q177.5 58 176.75 56.75Q176 55.5 171 55.25Q166 55 166 55.25Q166 55.5 161 56.25Q156 57 155.5 57.5Q155 58 152.5 58.5Q150 59 149.75 59.5Q149.5 60 148.75 60Q148 60 147.5 60.5Q147 61 146.25 61Q145.5 61 145.25 61.5Q145 62 144.25 62Q143.5 62 143.25 62.5Q143 63 142.5 63Q142 63 141.75 63.5Q141.5 64 140.75 64Q140 64 139.75 64.5Q139.5 65 138.25 65.5Q137 66 136.5 66.75Q136 67.5 135.5 67.5Q135 67.5 134.5 68.25Q134 69 133.5 69Q133 69 128 74Q123 79 123 79.5Q123 80 122.25 80.5Q121.5 81 121.5 81.5Q121.5 82 120.75 82.5Q120 83 120 83.5Q120 84 119 85Q118 86 117.5 87.5Q117 89 116.5 89.25Q116 89.5 116 90.25Q116 91 115.5 91.25Q115 91.5 115 92.25Q115 93 114.5 93.25Q114 93.5 114 94.25Q114 95 112.5 98Q111 101 110.5 104Q110 107 109.5 107.75Q109 108.5 109 110Q109 111.5 108.5 112.5Q108 113.5 107.5 121.25Q107 129 107.25 129Q107.5 129 107.75 135Q108 141 108.5 142Q109 143 109.5 147Q110 151 110.5 151.5Q111 152 111 153.25Q111 154.5 111.5 155Q112 155.5 112 156.5Q112 157.5 112.5 157.75Q113 158 113 159Q113 160 113.5 160.25Q114 160.5 114 161.5Q114 162.5 114.5 162.75Q115 163 115 163.75Q115 164.5 115.5 164.75Q116 165 116 165.75Q116 166.5 116.5 166.75Q117 167 117.5 168.5Q118 170 118.5 170.25Q119 170.5 119 171Q119 171.5 119.5 171.75Q120 172 121 174Q122 176 122.75 176.5Q123.5 177 123.5 177.5Q123.5 178 124.75 179Q126 180 126 180.5Q126 181 126.5 181Q127 181 127 181.5Q127 182 128.5 183.5Q130 185 130.5 185Q131 185 131 185.5Q131 186 131.5 186Q132 186 134.5 188.5Q137 191 137.5 191Q138 191 138.25 191.5Q138.5 192 139 192Q139.5 192 141.25 193.5Q143 195 144.5 195.5Q146 196 146.25 196.5Q146.5 197 147.25 197Q148 197 148.25 197.5Q148.5 198 149.25 198Q150 198 150.25 198.5Q150.5 199 151.25 199Q152 199 152.25 199.5Q152.5 200 153.25 200Q154 200 157 201.5Q160 203 161 203Q162 203 164 204Q166 205 167.25 205Q168.5 205 169 205.5Q169.5 206 171 206Q172.5 206 173.25 206.5Q174 207 175.5 207Q177 207 178 207.5Q179 208 180.75 208Q182.5 208 182.5 208.25Q182.5 208.5 183.75 208.5Q185 208.5 185 208.75Q185 209 187.75 209Q190.5 209 190.5 209.25Q190.5 209.5 192 209.5Q193.5 209.5 193.5 209.75Q193.5 210 206.75 210.5Q220 211 220 228.5Q220 246 197.75 246Q175.5 246 174.25 247Q173 248 173 248.75Q173 249.5 172.75 249.5Q172.5 249.5 172.5 250.75Q172.5 252 173.75 253.5Q175 255 224.5 255Q274 255 274.25 254.5Q274.5 254 275.25 253.75Q276 253.5 276 252.75Q276 252 276.25 252Q276.5 252 276.5 250.5Q276.5 249 275.25 247.5Q274 246 251.75 246Q229.5 246 229.25 245.75Q229 245.5 229 228.25Q229 211 242.5 210.5Q256 210 256 209.75Q256 209.5 257.5 209.5Q259 209.5 259 209.25Q259 209 261.5 209Q264 209 264 208.75Q264 208.5 267 208.25Q270 208 271 207.5Q272 207 273.75 207Q275.5 207 276 206.5Q276.5 206 278 206Q279.5 206 280 205.5Q280.5 205 281.75 205Q283 205 283.5 204.5Q284 204 285 204Q286 204 286.5 203.5Q287 203 289.5 202.5Q292 202 292.25 201.5Q292.5 201 294.5 200.5Q296.5 200 296.75 199.5Q297 199 297.75 199Q298.5 199 300.5 198Q302.5 197 302.75 196.5Q303 196 304.5 195.5Q306 195 306.25 194.5Q306.5 194 307 194Q307.5 194 307.75 193.5Q308 193 310 192Q312 191 314 189Q316 187 316.5 187Q317 187 320 184Q323 181 323 180.5Q323 180 323.5 180Q324 180 324 179.5Q324 179 325 178.25Q326 177.5 326.5 176.25Q327 175 327.5 175Q328 175 328 174.5Q328 174 329 173Q330 172 330.5 170.5Q331 169 331.5 168.75Q332 168.5 333.5 165.5Q335 162.5 335 161.75Q335 161 336 159.25Q337 157.5 337 156.5Q337 155.5 337.5 155Q338 154.5 338 153.5Q338 152.5 338.5 152Q339 151.5 339 150Q339 148.5 339.5 147.75Q340 147 340 145.5Q340 144 340.5 143Q341 142 341.25 137Q341.5 132 341.75 132Q342 132 342 126.75Q342 121.5 341.75 121.5Q341.5 121.5 341.5 119.5Q341.5 117.5 341.25 117.5Q341 117.5 341 115Q341 112.5 340.5 111.75Q340 111 339.5 107.5Q339 104 338.5 103.5Q338 103 338 101.75Q338 100.5 337.5 100.25Q337 100 336.5 97.75Q336 95.5 334 91.5Q332 87.5 331.5 87.25Q331 87 331 86.5Q331 86 330.5 85.75Q330 85.5 330 85Q330 84.5 329.5 84.25Q329 84 328 82Q327 80 326.5 80Q326 80 326 79.5Q326 79 325 78.25Q324 77.5 324 77Q324 76.5 321.5 74Q319 71.5 318.5 71.5Q318 71.5 317 70.25Q316 69 315.5 69Q315 69 314.25 68Q313.5 67 313 67Q312.5 67 310.75 65.5Q309 64 307.5 63.5Q306 63 305.75 62.5Q305.5 62 303.75 61.5Q302 61 301.75 60.5Q301.5 60 299.25 59.5Q297 59 296.5 58.5Q296 58 295 58Q294 58 293.5 57.5Q293 57 291.75 57Q290.5 57 289.75 56.5Q289 56 287.25 56Q285.5 56 285.5 55.75Q285.5 55.5 284.25 55.5Q283 55.5 283 55.25Q283 55 278.5 55Q274 55 273.75 55.5Q273.5 56 272.75 56.25Q272 56.5 272 57.5Q272 58.5 271.75 58.5Q271.5 58.5 272 60.25Q272.5 62 273 62Q273.5 62 273.75 62.5Q274 63 277.5 63Q281 63 281 63.25Q281 63.5 282.25 63.5Q283.5 63.5 283.5 63.75Q283.5 64 285.5 64Q287.5 64 288.25 64.5Q289 65 290.25 65Q291.5 65 292 65.5Q292.5 66 293.5 66Q294.5 66 294.75 66.5Q295 67 296 67Q297 67 297.25 67.5Q297.5 68 298.25 68Q299 68 301 69Q303 70 303.25 70.5Q303.5 71 304 71Q304.5 71 304.75 71.5Q305 72 306 72.25Q307 72.5 307.5 73.25Q308 74 309.25 74.5Q310.5 75 311.75 76.5Q313 78 313.5 78Q314 78 314 78.5Q314 79 314.5 79Q315 79 315 79.5Q315 80 315.5 80Q316 80 316 80.5Q316 81 316.5 81Q317 81 317 81.5Q317 82 318.5 83.25Q320 84.5 320 85Q320 85.5 320.5 85.75Q321 86 321 86.5Q321 87 321.75 87.5Q322.5 88 322.75 89Q323 90 324.5 91.75Q326 93.5 326 94.25Q326 95 326.5 95.25Q327 95.5 327.5 97.5Q328 99.5 328.5 99.75Q329 100 329 101Q329 102 329.5 102.25Q330 102.5 330 103.5Q330 104.5 330.25 104.5Q330.5 104.5 330.75 106.25Q331 108 331.5 108.75Q332 109.5 332 111Q332 112.5 332.5 113.5Q333 114.5 333 117.25Q333 120 333.25 120Q333.5 120 333.25 130Q333 140 332.5 141Q332 142 332 143.75Q332 145.5 331.5 146.25Q331 147 331 148.25Q331 149.5 330.5 150Q330 150.5 330 151.75Q330 153 329.5 153.5Q329 154 328 157.25Q327 160.5 326.5 160.75Q326 161 326 161.75Q326 162.5 325.5 162.75Q325 163 324.5 164.5Q324 166 323.5 166.25Q323 166.5 323 167Q323 167.5 322.5 167.75Q322 168 321 170Q320 172 318.5 173.25Q317 174.5 317 175Q317 175.5 314.5 178Q312 180.5 311.5 180.5Q311 180.5 310 181.75Q309 183 308.5 183Q308 183 306.5 184.5Q305 186 301 188Q297 190 296.75 190.5Q296.5 191 295.75 191Q295 191 294.75 191.5Q294.5 192 293.75 192Q293 192 292.5 192.5Q292 193 291.25 193Q290.5 193 290.25 193.5Q290 194 289 194Q288 194 286.25 195Q284.5 196 283.5 196Q282.5 196 282.5 196.25Q282.5 196.5 280.75 196.75Q279 197 278.25 197.5Q277.5 198 276.25 198Q275 198 274.25 198.5Q273.5 199 272 199Q270.5 199 270.5 199.25Q270.5 199.5 267.75 199.75Q265 200 265 200.25Q265 200.5 263.75 200.5Q262.5 200.5 262.5 200.75Q262.5 201 259.75 201Q257 201 257 201.25Q257 201.5 255.25 201.5Q253.5 201.5 253.5 201.75Q253.5 202 249 202Q244.5 202 244.5 202.25Q244.5 202.5 236.75 202.5Q229 202.5 229 125.5Q229 48.5 229.5 48.25Q230 48 230 47.5Q230 47 230.5 46.75Q231 46.5 231.5 45.5Q232 44.5 232 42.5Q232 40.5 231.5 39.5Q231 38.5 230.5 38.25Q230 38 230 37.5Q230 37 229.5 37Q229 37 228.75 36.5Q228.5 36 227.75 36Q227 36 226.5 35.5Q226 35 224.75 35Q223.5 35 223.25 35Z"></path><path d="M0.75 317Q0.5 317 0.25 317.5Q0 318 0.25 318Q0.5 318 0.75 318.5Q1 319 2 319Q3 319 3 319.25Q3 319.5 3.5 319.75Q4 320 4 320.5Q4 321 4.25 321Q4.5 321 4.5 333Q4.5 345 4.25 345Q4 345 4 345.75Q4 346.5 3.75 346.5Q3.5 346.5 3.5 346.75Q3.5 347 2.25 347Q1 347 1 347.25Q1 347.5 0.5 347.5Q0 347.5 0 348.25Q0 349 8.75 349Q17.5 349 17.5 348.75Q17.5 348.5 18.25 348.5Q19 348.5 19 348.25Q19 348 20 348Q21 348 21.25 347.5Q21.5 347 22.25 347Q23 347 23.25 346.5Q23.5 346 24 346Q24.5 346 24.75 345.5Q25 345 25.5 345Q26 345 26 344.75Q26 344.5 26.5 344.25Q27 344 27 343.5Q27 343 27.5 343Q28 343 28 342.5Q28 342 28.5 341.75Q29 341.5 29 340.75Q29 340 29.5 339.75Q30 339.5 30 338.25Q30 337 30.25 337Q30.5 337 30.5 336Q30.5 335 30.75 335Q31 335 31 333Q31 331 30.75 331Q30.5 331 30.5 330Q30.5 329 30.25 329Q30 329 30 327.75Q30 326.5 29.5 326.25Q29 326 29 325.25Q29 324.5 28.5 324.25Q28 324 28 323.5Q28 323 27.75 323Q27.5 323 26.25 321.5Q25 320 24.5 320Q24 320 24 319.75Q24 319.5 23.5 319.5Q23 319.5 23 319.25Q23 319 22.5 319Q22 319 22 318.75Q22 318.5 21.5 318.5Q21 318.5 21 318.25Q21 318 20 318Q19 318 19 317.75Q19 317.5 18.5 317.5Q18 317.5 18 317.25Q18 317 9.5 317Q1 317 0.75 317ZM47.25 317Q47 317 47 317.25Q47 317.5 46.5 317.75Q46 318 46 318.75Q46 319.5 45.75 319.5Q45.5 319.5 45.25 320.75Q45 322 44.75 322Q44.5 322 44.5 322.5Q44.5 323 44.25 323Q44 323 44 324Q44 325 43.5 325.25Q43 325.5 43 326.5Q43 327.5 42.5 327.75Q42 328 42 329Q42 330 41.5 330.25Q41 330.5 41 331.5Q41 332.5 40.75 332.5Q40.5 332.5 40.5 333Q40.5 333.5 40.25 333.5Q40 333.5 40 334.25Q40 335 39.75 335Q39.5 335 39.5 335.5Q39.5 336 39.25 336Q39 336 39 336.75Q39 337.5 38.75 337.5Q38.5 337.5 38.5 338Q38.5 338.5 38.25 338.5Q38 338.5 38 339.25Q38 340 37.75 340Q37.5 340 37.5 340.5Q37.5 341 37.25 341Q37 341 37 341.75Q37 342.5 36.75 342.5Q36.5 342.5 36.25 343.5Q36 344.5 35.5 344.75Q35 345 35 345.5Q35 346 34.5 346Q34 346 33.75 346.5Q33.5 347 32.5 347Q31.5 347 31.5 347.25Q31.5 347.5 31.25 347.5Q31 347.5 31 348.25Q31 349 37 349Q43 349 43 348.25Q43 347.5 42.75 347.5Q42.5 347.5 42.5 347.25Q42.5 347 41.25 347Q40 347 40 346.75Q40 346.5 39.5 346.5Q39 346.5 39 346Q39 345.5 38.75 345.5Q38.5 345.5 38.5 345Q38.5 344.5 38.75 344.5Q39 344.5 39 343.25Q39 342 39.25 342Q39.5 342 39.75 340.5Q40 339 40.25 339Q40.5 339 40.75 338.5Q41 338 46.5 338Q52 338 52 338.75Q52 339.5 52.25 339.5Q52.5 339.5 52.75 340.75Q53 342 53.25 342Q53.5 342 53.5 342.5Q53.5 343 53.75 343Q54 343 54.25 344.75Q54.5 346.5 54.25 346.5Q54 346.5 54 346.75Q54 347 52.75 347Q51.5 347 51.5 347.25Q51.5 347.5 51 347.75Q50.5 348 50.75 348.5Q51 349 63.5 349Q76 349 76 348.25Q76 347.5 75.75 347.5Q75.5 347.5 75.5 347.25Q75.5 347 74.5 347Q73.5 347 73.5 346.75Q73.5 346.5 73 346.5Q72.5 346.5 72.5 346.25Q72.5 346 71.75 345.5Q71 345 71 343.75Q71 342.5 70.75 342.5Q70.5 342.5 70.5 333.5Q70.5 324.5 71.25 324.5Q72 324.5 72 325Q72 325.5 72.5 325.75Q73 326 73 326.5Q73 327 74 327.75Q75 328.5 75 329Q75 329.5 75.5 329.75Q76 330 76 330.5Q76 331 76.25 331Q76.5 331 76.5 331.25Q76.5 331.5 77 331.75Q77.5 332 77.5 332.5Q77.5 333 78.25 333.5Q79 334 79 334.5Q79 335 79.5 335.25Q80 335.5 80 336Q80 336.5 81 337.25Q82 338 82 338.5Q82 339 82.5 339.25Q83 339.5 83 340Q83 340.5 84 341.25Q85 342 85 342.5Q85 343 85.5 343.25Q86 343.5 86 344Q86 344.5 86.5 344.75Q87 345 87 345.5Q87 346 88 346.75Q89 347.5 89 348Q89 348.5 89.25 348.5Q89.5 348.5 89.5 348.75Q89.5 349 90.5 349Q91.5 349 91.5 348.75Q91.5 348.5 91.75 348.5Q92 348.5 92 334.75Q92 321 92.25 321Q92.5 321 93.25 320Q94 319 95.25 319Q96.5 319 96.5 318.75Q96.5 318.5 96.75 318.5Q97 318.5 97 317.75Q97 317 90.5 317Q84 317 84 317.75Q84 318.5 84.25 318.5Q84.5 318.5 84.5 318.75Q84.5 319 85.5 319Q86.5 319 86.5 319.25Q86.5 319.5 87 319.5Q87.5 319.5 87.5 319.75Q87.5 320 88.25 320.25Q89 320.5 89 321.75Q89 323 89.25 323Q89.5 323 89.5 331.25Q89.5 339.5 88.75 339.5Q88 339.5 88 339Q88 338.5 87.5 338.25Q87 338 87 337.5Q87 337 86 336.25Q85 335.5 85 335Q85 334.5 84.5 334.25Q84 334 84 333.5Q84 333 83.25 332.5Q82.5 332 82.5 331.5Q82.5 331 81.75 330.5Q81 330 81 329.5Q81 329 80.25 328.5Q79.5 328 79.5 327.5Q79.5 327 78.75 326.5Q78 326 78 325.5Q78 325 77.75 325Q77.5 325 77.25 324.25Q77 323.5 76 322.75Q75 322 75 321.5Q75 321 74.75 321Q74.5 321 74.25 320.25Q74 319.5 73 318.75Q72 318 72 317.5Q72 317 67.25 317Q62.5 317 62.5 317.75Q62.5 318.5 62.75 318.5Q63 318.5 63 318.75Q63 319 64 319Q65 319 65.25 319.5Q65.5 320 66 320Q66.5 320 66.5 320.25Q66.5 320.5 67.25 321Q68 321.5 68 333.25Q68 345 67.75 345Q67.5 345 66.75 346Q66 347 63.75 347Q61.5 347 61.25 346.5Q61 346 60.5 346Q60 346 60 345.5Q60 345 59.75 345Q59.5 345 59.5 344.5Q59.5 344 59.25 344Q59 344 59 343.25Q59 342.5 58.75 342.5Q58.5 342.5 58.5 342Q58.5 341.5 58.25 341.5Q58 341.5 58 340.75Q58 340 57.75 340Q57.5 340 57.5 339.5Q57.5 339 57.25 339Q57 339 57 338.25Q57 337.5 56.75 337.5Q56.5 337.5 56.5 337Q56.5 336.5 56.25 336.5Q56 336.5 56 335.75Q56 335 55.75 335Q55.5 335 55.5 334.5Q55.5 334 55.25 334Q55 334 55 333.25Q55 332.5 54.75 332.5Q54.5 332.5 54.5 332Q54.5 331.5 54.25 331.5Q54 331.5 54 330.75Q54 330 53.75 330Q53.5 330 53.5 329.5Q53.5 329 53.25 329Q53 329 53 328Q53 327 52.5 326.75Q52 326.5 52 325.5Q52 324.5 51.5 324.25Q51 324 51 323Q51 322 50.75 322Q50.5 322 50.5 321.5Q50.5 321 50.25 321Q50 321 50 320.25Q50 319.5 49.75 319.5Q49.5 319.5 49.5 319Q49.5 318.5 49.25 318.5Q49 318.5 49 317.75Q49 317 48.25 317Q47.5 317 47.25 317ZM99.25 317Q99 317 99 317.75Q99 318.5 99.25 318.5Q99.5 318.5 99.5 318.75Q99.5 319 100.5 319Q101.5 319 101.5 319.25Q101.5 319.5 102 319.5Q102.5 319.5 102.75 320.25Q103 321 103.25 321Q103.5 321 103.5 333.25Q103.5 345.5 103.25 345.5Q103 345.5 102.75 346.25Q102.5 347 101 347Q99.5 347 99.5 347.25Q99.5 347.5 99.25 347.5Q99 347.5 99 348.25Q99 349 106 349Q113 349 113 348.25Q113 347.5 112.75 347.5Q112.5 347.5 112.5 347.25Q112.5 347 111.25 347Q110 347 110 346.75Q110 346.5 109.5 346.5Q109 346.5 109 346Q109 345.5 108.75 345.5Q108.5 345.5 108.5 333Q108.5 320.5 108.75 320.5Q109 320.5 109.25 319.75Q109.5 319 111 319Q112.5 319 112.5 318.75Q112.5 318.5 112.75 318.5Q113 318.5 113 317.75Q113 317 106.25 317Q99.5 317 99.25 317ZM117.25 317Q117 317 117 317.75Q117 318.5 117.25 318.5Q117.5 318.5 117.5 318.75Q117.5 319 118.75 319Q120 319 120 319.25Q120 319.5 120.5 319.75Q121 320 121 320.75Q121 321.5 121.25 321.5Q121.5 321.5 121.5 333.25Q121.5 345 121.25 345Q121 345 121 345.75Q121 346.5 120.75 346.5Q120.5 346.5 120.5 346.75Q120.5 347 119 347Q117.5 347 117.5 347.25Q117.5 347.5 117.25 347.5Q117 347.5 117 348.25Q117 349 130 349Q143 349 143 348.75Q143 348.5 143.25 348.5Q143.5 348.5 143.5 347.25Q143.5 346 143.75 346Q144 346 144 343Q144 340 143 340Q142 340 142 340.75Q142 341.5 141.5 341.75Q141 342 141 342.75Q141 343.5 140.75 343.5Q140.5 343.5 140.25 344.25Q140 345 139.75 345Q139.5 345 139 345.75Q138.5 346.5 138 346.5Q137.5 346.5 137.5 346.75Q137.5 347 132.75 347Q128 347 128 346.75Q128 346.5 127.5 346.5Q127 346.5 127 346Q127 345.5 126.75 345.5Q126.5 345.5 126.5 344.25Q126.5 343 126.25 343Q126 343 126 338.25Q126 333.5 126.25 333.5Q126.5 333.5 126.5 333.25Q126.5 333 129.5 333Q132.5 333 132.5 333.25Q132.5 333.5 133.25 334Q134 334.5 134 335.25Q134 336 134.25 336Q134.5 336 134.5 336.5Q134.5 337 134.75 337Q135 337 135 338Q135 339 135.75 339Q136.5 339 136.5 338.75Q136.5 338.5 136.75 338.5Q137 338.5 137 332.5Q137 326.5 136.75 326.5Q136.5 326.5 136.5 326.25Q136.5 326 135.75 326Q135 326 135 326.75Q135 327.5 134.75 327.5Q134.5 327.5 134.25 328.5Q134 329.5 133.75 329.5Q133.5 329.5 133.25 330Q133 330.5 132.5 330.5Q132 330.5 132 330.75Q132 331 129.25 331Q126.5 331 126.5 330.75Q126.5 330.5 126.25 330.5Q126 330.5 126 325Q126 319.5 126.25 319.5Q126.5 319.5 126.5 319.25Q126.5 319 131.25 319Q136 319 136 319.25Q136 319.5 137 320.25Q138 321 138 321.5Q138 322 138.5 322.25Q139 322.5 139.25 323.5Q139.5 324.5 139.75 324.5Q140 324.5 140 324.75Q140 325 140.75 325Q141.5 325 141.5 324.75Q141.5 324.5 141.75 324.5Q142 324.5 142 324Q142 323.5 141.75 323.5Q141.5 323.5 141.5 323.25Q141.5 323 141.75 323Q142 323 142 322.5Q142 322 141.75 322Q141.5 322 141.5 320.25Q141.5 318.5 141.75 318.5Q142 318.5 142 318Q142 317.5 141.75 317.5Q141.5 317.5 141.5 317.25Q141.5 317 129.5 317Q117.5 317 117.25 317ZM147.25 317Q147 317 147 317.75Q147 318.5 148.75 319Q150.5 319.5 150.5 319.75Q150.5 320 150.75 320Q151 320 151 320.75Q151 321.5 151.25 321.5Q151.5 321.5 151.5 333.25Q151.5 345 151.25 345Q151 345 151 345.75Q151 346.5 150.75 346.5Q150.5 346.5 150.5 346.75Q150.5 347 149.25 347Q148 347 148 347.25Q148 347.5 147.5 347.5Q147 347.5 147 348.25Q147 349 159.5 349Q172 349 172 348Q172 347 172.25 347Q172.5 347 172.5 344.25Q172.5 341.5 172.75 341.5Q173 341.5 173 340.5Q173 339.5 172.75 339.5Q172.5 339.5 172.5 339.25Q172.5 339 171.75 339Q171 339 171 339.5Q171 340 170.75 340Q170.5 340 170.5 340.5Q170.5 341 170.25 341Q170 341 170 341.5Q170 342 169.75 342Q169.5 342 169.5 342.5Q169.5 343 169.25 343Q169 343 169 343.5Q169 344 168.5 344.25Q168 344.5 167.75 345.25Q167.5 346 167 346Q166.5 346 166.5 346.25Q166.5 346.5 166 346.5Q165.5 346.5 165.5 346.75Q165.5 347 161.5 347Q157.5 347 157.25 346.25Q157 345.5 156.75 345.5Q156.5 345.5 156.5 344.25Q156.5 343 156.25 343Q156 343 156 332.25Q156 321.5 156.25 321.5Q156.5 321.5 156.5 320.75Q156.5 320 156.75 320Q157 320 157.25 319.5Q157.5 319 158.75 319Q160 319 160.5 318.25Q161 317.5 160.75 317.5Q160.5 317.5 160.5 317.25Q160.5 317 154 317Q147.5 317 147.25 317ZM175.25 317Q175 317 175 317.75Q175 318.5 176.75 319Q178.5 319.5 178.5 319.75Q178.5 320 178.75 320Q179 320 179 320.75Q179 321.5 179.25 321.5Q179.5 321.5 179.5 333.25Q179.5 345 179.25 345Q179 345 179 345.75Q179 346.5 178.75 346.5Q178.5 346.5 178.5 346.75Q178.5 347 177.25 347Q176 347 176 347.25Q176 347.5 175.5 347.5Q175 347.5 175 348.25Q175 349 187.5 349Q200 349 200 348Q200 347 200.25 347Q200.5 347 200.5 344.25Q200.5 341.5 200.75 341.5Q201 341.5 201 340.5Q201 339.5 200.75 339.5Q200.5 339.5 200.5 339.25Q200.5 339 199.75 339Q199 339 199 339.5Q199 340 198.75 340Q198.5 340 198.5 340.5Q198.5 341 198.25 341Q198 341 198 341.5Q198 342 197.75 342Q197.5 342 197.5 342.5Q197.5 343 197.25 343Q197 343 197 343.5Q197 344 196.5 344.25Q196 344.5 195.75 345.25Q195.5 346 195 346Q194.5 346 194.5 346.25Q194.5 346.5 194 346.5Q193.5 346.5 193.5 346.75Q193.5 347 189.5 347Q185.5 347 185.25 346.25Q185 345.5 184.75 345.5Q184.5 345.5 184.5 344.25Q184.5 343 184.25 343Q184 343 184 332.25Q184 321.5 184.25 321.5Q184.5 321.5 184.5 320.75Q184.5 320 184.75 320Q185 320 185.25 319.5Q185.5 319 186.75 319Q188 319 188.5 318.25Q189 317.5 188.75 317.5Q188.5 317.5 188.5 317.25Q188.5 317 182 317Q175.5 317 175.25 317ZM199.25 317Q199 317 199 317.75Q199 318.5 199.25 318.5Q199.5 318.5 199.5 318.75Q199.5 319 200.5 319Q201.5 319 201.5 319.25Q201.5 319.5 202.75 320.5Q204 321.5 204.5 323Q205 324.5 205.5 324.75Q206 325 206 325.75Q206 326.5 206.5 326.75Q207 327 207 327.5Q207 328 207.25 328Q207.5 328 207.75 329Q208 330 208.5 330.25Q209 330.5 209 331.25Q209 332 209.5 332.25Q210 332.5 210 333.25Q210 334 210.5 334.25Q211 334.5 211 335.25Q211 336 211.25 336Q211.5 336 211.5 340.75Q211.5 345.5 211.25 345.5Q211 345.5 210.75 346.25Q210.5 347 209 347Q207.5 347 207.5 347.25Q207.5 347.5 207 347.75Q206.5 348 206.5 348.5Q206.5 349 214 349Q221.5 349 221.5 348.25Q221.5 347.5 221.25 347.5Q221 347.5 221 347.25Q221 347 219.5 347Q218 347 218 346.75Q218 346.5 217.25 346Q216.5 345.5 216.5 340.75Q216.5 336 216.75 336Q217 336 217 335.25Q217 334.5 217.25 334.5Q217.5 334.5 217.75 333.5Q218 332.5 218.5 332.25Q219 332 219.5 330.5Q220 329 220.5 328.75Q221 328.5 221.5 327Q222 325.5 222.5 325.25Q223 325 223 324.5Q223 324 223.25 324Q223.5 324 223.75 323.25Q224 322.5 224.5 322.25Q225 322 225 321.5Q225 321 225.25 321Q225.5 321 225.75 320.5Q226 320 226.5 320Q227 320 227.25 319.5Q227.5 319 228.25 319Q229 319 229 318.75Q229 318.5 229.25 318.5Q229.5 318.5 229.5 317.75Q229.5 317 224 317Q218.5 317 218.5 317.75Q218.5 318.5 218.75 318.5Q219 318.5 219 318.75Q219 319 220.5 319Q222 319 222.25 320Q222.5 321 222.25 321Q222 321 222 321.75Q222 322.5 221.5 322.75Q221 323 220.5 324.5Q220 326 219.75 326Q219.5 326 219.25 326.75Q219 327.5 218.5 327.75Q218 328 217.5 329.5Q217 331 216.5 331.25Q216 331.5 216 332Q216 332.5 215.5 332.5Q215 332.5 215 332Q215 331.5 214.5 331.25Q214 331 214 330.25Q214 329.5 213.5 329.25Q213 329 212.5 327.5Q212 326 211.5 325.75Q211 325.5 211 324.75Q211 324 210.5 323.75Q210 323.5 210 323Q210 322.5 209.75 322.5Q209.5 322.5 209.5 322Q209.5 321.5 209.25 321.5Q209 321.5 209 320.25Q209 319 210.25 319Q211.5 319 211.5 318.75Q211.5 318.5 212 318.5Q212.5 318.5 212.5 317.75Q212.5 317 206 317Q199.5 317 199.25 317ZM252.75 317Q252.5 317 252.5 317.25Q252.5 317.5 251 317.75Q249.5 318 249.25 318.5Q249 319 248.5 319Q248 319 248 319.25Q248 319.5 247.5 319.5Q247 319.5 246.5 320.25Q246 321 245.5 321Q245 321 245 321.5Q245 322 244.25 322.5Q243.5 323 243.5 323.5Q243.5 324 243.25 324Q243 324 243 324.5Q243 325 242.5 325.25Q242 325.5 242 326.25Q242 327 241.75 327Q241.5 327 241.5 327.5Q241.5 328 241.25 328Q241 328 241 333Q241 338 241.25 338Q241.5 338 241.75 339.5Q242 341 242.5 341.25Q243 341.5 243 342Q243 342.5 243.5 342.75Q244 343 244 343.5Q244 344 244.25 344Q244.5 344 245.25 345Q246 346 246.5 346Q247 346 247 346.25Q247 346.5 247.75 346.75Q248.5 347 248.75 347.5Q249 348 249.75 348Q250.5 348 250.5 348.25Q250.5 348.5 251.25 348.5Q252 348.5 252 348.75Q252 349 255.5 349Q259 349 259 348.75Q259 348.5 259.5 348.5Q260 348.5 260 348.25Q260 348 261 348Q262 348 262.25 347.5Q262.5 347 263 347Q263.5 347 263.75 346.5Q264 346 264.5 346Q265 346 265 345.5Q265 345 266 344.25Q267 343.5 267 342.75Q267 342 267.25 342Q267.5 342 267.5 341.25Q267.5 340.5 266.75 340.25Q266 340 266 340.5Q266 341 265.5 341.25Q265 341.5 265 342Q265 342.5 264.75 342.5Q264.5 342.5 263.5 343.75Q262.5 345 262 345Q261.5 345 261.5 345.25Q261.5 345.5 261 345.5Q260.5 345.5 260.5 345.75Q260.5 346 259.25 346Q258 346 258 346.25Q258 346.5 255.5 346.25Q253 346 252.75 345.5Q252.5 345 252 345Q251.5 345 251.5 344.75Q251.5 344.5 250 343.25Q248.5 342 248.5 341.5Q248.5 341 248.25 341Q248 341 248 340.5Q248 340 247.75 340Q247.5 340 247.5 339.5Q247.5 339 247.25 339Q247 339 246.75 337Q246.5 335 246.25 335Q246 335 246 332.75Q246 330.5 246.25 330.5Q246.5 330.5 246.75 328.25Q247 326 247.25 326Q247.5 326 248 324.5Q248.5 323 248.75 323Q249 323 250.25 321.5Q251.5 320 252.25 320Q253 320 253 319.75Q253 319.5 253.5 319.5Q254 319.5 254 319.25Q254 319 256 319Q258 319 258 319.25Q258 319.5 259 319.75Q260 320 260 320.25Q260 320.5 261.5 321.75Q263 323 263 323.75Q263 324.5 263.5 324.75Q264 325 264.25 326.75Q264.5 328.5 264.75 328.5Q265 328.5 265 328.75Q265 329 265.75 329Q266.5 329 266.5 328.75Q266.5 328.5 266.75 328.5Q267 328.5 267 323.75Q267 319 266.75 319Q266.5 319 266.5 318Q266.5 317 265.5 317Q264.5 317 264.25 318Q264 319 263.5 319Q263 319 263 318.75Q263 318.5 262.5 318.5Q262 318.5 262 318.25Q262 318 261.25 318Q260.5 318 260.5 317.75Q260.5 317.5 260 317.5Q259.5 317.5 259.5 317.25Q259.5 317 256.25 317Q253 317 252.75 317ZM270.25 317Q270 317 270 317.25Q270 317.5 269.75 317.5Q269.5 317.5 269.75 318.25Q270 319 271.25 319Q272.5 319 272.5 319.25Q272.5 319.5 273 319.75Q273.5 320 273.5 320.5Q273.5 321 273.75 321Q274 321 274 332Q274 343 274.5 343.25Q275 343.5 275 344Q275 344.5 275.5 344.75Q276 345 276 345.5Q276 346 276.5 346Q277 346 277 346.25Q277 346.5 277.75 346.75Q278.5 347 278.75 347.5Q279 348 279.75 348Q280.5 348 280.5 348.25Q280.5 348.5 281.25 348.5Q282 348.5 282 348.75Q282 349 285.5 349Q289 349 289 348.75Q289 348.5 289.5 348.5Q290 348.5 290 348.25Q290 348 291 348Q292 348 292.25 347.5Q292.5 347 293 347Q293.5 347 293.5 346.75Q293.5 346.5 294.75 345.5Q296 344.5 296 344Q296 343.5 296.25 343.5Q296.5 343.5 296.5 343Q296.5 342.5 296.75 342.5Q297 342.5 297 340.75Q297 339 297.25 339Q297.5 339 297.5 330.25Q297.5 321.5 297.75 321.5Q298 321.5 298 320.75Q298 320 298.25 320Q298.5 320 298.5 319.75Q298.5 319.5 299 319.5Q299.5 319.5 299.5 319.25Q299.5 319 300.75 319Q302 319 302 318.75Q302 318.5 302.25 318.5Q302.5 318.5 302.5 317.75Q302.5 317 296 317Q289.5 317 289.5 317.75Q289.5 318.5 289.75 318.5Q290 318.5 290 318.75Q290 319 291.25 319Q292.5 319 292.75 319.5Q293 320 293.5 320Q294 320 294.25 321.25Q294.5 322.5 294.75 322.5Q295 322.5 295 331.5Q295 340.5 294.75 340.5Q294.5 340.5 294.25 341.75Q294 343 293.75 343Q293.5 343 292.75 344Q292 345 291.5 345Q291 345 290.75 345.5Q290.5 346 286.75 346Q283 346 283 345.75Q283 345.5 282 345.25Q281 345 281 344.5Q281 344 280.5 344Q280 344 280 343.5Q280 343 279.75 343Q279.5 343 279.5 342.5Q279.5 342 279.25 342Q279 342 279 331Q279 320 279.25 320Q279.5 320 279.75 319.5Q280 319 281.25 319Q282.5 319 282.5 318.75Q282.5 318.5 282.75 318.5Q283 318.5 283 317.75Q283 317 276.75 317Q270.5 317 270.25 317ZM305.25 317Q305 317 305 317.5Q305 318 305.25 318Q305.5 318 305.75 318.5Q306 319 307.25 319Q308.5 319 308.5 319.25Q308.5 319.5 308.75 319.5Q309 319.5 309 320.25Q309 321 309.25 321Q309.5 321 309.5 333Q309.5 345 309.25 345Q309 345 309 345.75Q309 346.5 308.75 346.5Q308.5 346.5 308.5 346.75Q308.5 347 307.25 347Q306 347 306 347.25Q306 347.5 305.5 347.5Q305 347.5 305 348.25Q305 349 311.75 349Q318.5 349 318.5 348.75Q318.5 348.5 318.75 348.5Q319 348.5 318.5 347.75Q318 347 316.75 347Q315.5 347 315.5 346.75Q315.5 346.5 315 346.25Q314.5 346 314.5 345.25Q314.5 344.5 314.25 344.5Q314 344.5 314 340Q314 335.5 314.25 335.5Q314.5 335.5 314.5 335.25Q314.5 335 316 335Q317.5 335 317.5 335.25Q317.5 335.5 318.25 336Q319 336.5 319 337Q319 337.5 320 338.25Q321 339 321 339.5Q321 340 321.5 340.25Q322 340.5 322 341Q322 341.5 322.5 341.75Q323 342 323 342.5Q323 343 324 343.75Q325 344.5 325 345Q325 345.5 325.5 345.75Q326 346 326 346.5Q326 347 326.5 347.25Q327 347.5 327.25 348.25Q327.5 349 331.75 349Q336 349 336 348.75Q336 348.5 336.5 348.5Q337 348.5 337 348.75Q337 349 344 349Q351 349 351 348.25Q351 347.5 350.75 347.5Q350.5 347.5 350.5 347.25Q350.5 347 349.25 347Q348 347 348 346.75Q348 346.5 347.5 346.5Q347 346.5 347 346Q347 345.5 346.75 345.5Q346.5 345.5 346.5 333Q346.5 320.5 346.75 320.5Q347 320.5 347.25 319.75Q347.5 319 349 319Q350.5 319 350.5 318.75Q350.5 318.5 350.75 318.5Q351 318.5 351 317.75Q351 317 344 317Q337 317 337 317.75Q337 318.5 337.25 318.5Q337.5 318.5 337.5 318.75Q337.5 319 338.5 319Q339.5 319 339.5 319.25Q339.5 319.5 340 319.5Q340.5 319.5 340.75 320.25Q341 321 341.25 321Q341.5 321 341.5 333.25Q341.5 345.5 341.25 345.5Q341 345.5 340.75 346.25Q340.5 347 339 347Q337.5 347 337.25 347.5Q337 348 336.5 348Q336 348 335.75 347.5Q335.5 347 334 346.75Q332.5 346.5 332.5 346.25Q332.5 346 330.75 344.5Q329 343 329 342.5Q329 342 328.25 341.5Q327.5 341 327.5 340.5Q327.5 340 326.75 339.5Q326 339 326 338.5Q326 338 325.75 338Q325.5 338 325.5 337.75Q325.5 337.5 324.75 337Q324 336.5 324 336Q324 335.5 323.5 335.25Q323 335 323 334.25Q323 333.5 323.25 333.5Q323.5 333.5 323.5 333.25Q323.5 333 324.25 333Q325 333 325.25 332.5Q325.5 332 326 332Q326.5 332 326.75 331.5Q327 331 327.5 331Q328 331 328 330.5Q328 330 328.5 329.75Q329 329.5 329 329Q329 328.5 329.25 328.5Q329.5 328.5 329.5 328Q329.5 327.5 329.75 327.5Q330 327.5 330 325Q330 322.5 329.75 322.5Q329.5 322.5 329.25 321.5Q329 320.5 328.75 320.5Q328.5 320.5 327.75 319.5Q327 318.5 325.75 318.25Q324.5 318 324.5 317.75Q324.5 317.5 324 317.5Q323.5 317.5 323.5 317.25Q323.5 317 314.5 317Q305.5 317 305.25 317ZM366.75 317Q366.5 317 366.5 317.25Q366.5 317.5 365 317.75Q363.5 318 363.25 318.5Q363 319 362.5 319Q362 319 361.75 319.5Q361.5 320 361 320Q360.5 320 360.5 320.25Q360.5 320.5 359.25 321.5Q358 322.5 358 323Q358 323.5 357.5 323.75Q357 324 357 324.5Q357 325 356.5 325.25Q356 325.5 356 326.25Q356 327 355.75 327Q355.5 327 355.5 327.5Q355.5 328 355.25 328Q355 328 355 332.75Q355 337.5 355.25 337.5Q355.5 337.5 355.75 339Q356 340.5 356.5 340.75Q357 341 357.25 342Q357.5 343 357.75 343Q358 343 359.5 344.75Q361 346.5 362 346.75Q363 347 363.25 347.5Q363.5 348 365 348.25Q366.5 348.5 366.5 348.75Q366.5 349 370 349Q373.5 349 373.5 348.75Q373.5 348.5 375 348.25Q376.5 348 376.75 347.5Q377 347 377.75 347Q378.5 347 378.75 346.5Q379 346 379.5 346Q380 346 380 345.5Q380 345 380.5 345Q381 345 381 344.75Q381 344.5 381.5 344.25Q382 344 382 343.5Q382 343 382.5 342.75Q383 342.5 383 342Q383 341.5 383.5 341.25Q384 341 384 340.25Q384 339.5 384.25 339.5Q384.5 339.5 384.5 339Q384.5 338.5 384.75 338.5Q385 338.5 385 337Q385 335.5 385.25 335.5Q385.5 335.5 385.25 331.5Q385 327.5 384.75 327.5Q384.5 327.5 384.5 327Q384.5 326.5 384.25 326.5Q384 326.5 384 325.75Q384 325 383.75 325Q383.5 325 383.25 324.25Q383 323.5 382.5 323.25Q382 323 382 322.5Q382 322 381.75 322Q381.5 322 381.25 321.5Q381 321 380.5 321Q380 321 380 320.5Q380 320 379.5 320Q379 320 378.75 319.5Q378.5 319 377.75 319Q377 319 376.75 318.5Q376.5 318 375.75 318Q375 318 375 317.75Q375 317.5 374.25 317.5Q373.5 317.5 373.5 317.25Q373.5 317 370.25 317Q367 317 366.75 317ZM387.75 317Q387.5 317 387.5 317.75Q387.5 318.5 387.75 318.5Q388 318.5 388 318.75Q388 319 389 319Q390 319 390.25 319.5Q390.5 320 391 320Q391.5 320 391.5 320.25Q391.5 320.5 392.25 321Q393 321.5 393 333.25Q393 345 392.75 345Q392.5 345 391.75 346Q391 347 389.75 347Q388.5 347 388.5 347.25Q388.5 347.5 388.25 347.5Q388 347.5 388 348.25Q388 349 394.5 349Q401 349 401 348.25Q401 347.5 400.75 347.5Q400.5 347.5 400.5 347.25Q400.5 347 399.5 347Q398.5 347 398.5 346.75Q398.5 346.5 398 346.5Q397.5 346.5 397.5 346.25Q397.5 346 396.75 345.5Q396 345 396 343.75Q396 342.5 395.75 342.5Q395.5 342.5 395.5 333.5Q395.5 324.5 396.25 324.5Q397 324.5 397 325Q397 325.5 397.5 325.75Q398 326 398 326.5Q398 327 399 327.75Q400 328.5 400 329Q400 329.5 400.5 329.75Q401 330 401 330.5Q401 331 401.25 331Q401.5 331 401.5 331.25Q401.5 331.5 402 331.75Q402.5 332 402.5 332.5Q402.5 333 403.25 333.5Q404 334 404 334.5Q404 335 404.5 335.25Q405 335.5 405 336Q405 336.5 406 337.25Q407 338 407 338.5Q407 339 407.5 339.25Q408 339.5 408 340Q408 340.5 409 341.25Q410 342 410 342.5Q410 343 410.5 343.25Q411 343.5 411 344Q411 344.5 411.5 344.75Q412 345 412 345.5Q412 346 413 346.75Q414 347.5 414 348Q414 348.5 414.25 348.5Q414.5 348.5 414.5 348.75Q414.5 349 415.5 349Q416.5 349 416.5 348.75Q416.5 348.5 416.75 348.5Q417 348.5 417 334.75Q417 321 417.25 321Q417.5 321 418.25 320Q419 319 420.25 319Q421.5 319 421.5 318.75Q421.5 318.5 421.75 318.5Q422 318.5 422 317.75Q422 317 415.5 317Q409 317 409 317.75Q409 318.5 409.25 318.5Q409.5 318.5 409.5 318.75Q409.5 319 410.5 319Q411.5 319 411.5 319.25Q411.5 319.5 412 319.5Q412.5 319.5 412.5 319.75Q412.5 320 413.25 320.25Q414 320.5 414 321.75Q414 323 414.25 323Q414.5 323 414.5 331.25Q414.5 339.5 413.75 339.5Q413 339.5 413 339Q413 338.5 412.5 338.25Q412 338 412 337.5Q412 337 411 336.25Q410 335.5 410 335Q410 334.5 409.5 334.25Q409 334 409 333.5Q409 333 408.25 332.5Q407.5 332 407.5 331.5Q407.5 331 406.75 330.5Q406 330 406 329.5Q406 329 405.25 328.5Q404.5 328 404.5 327.5Q404.5 327 403.75 326.5Q403 326 403 325.5Q403 325 402.75 325Q402.5 325 402.25 324.25Q402 323.5 401 322.75Q400 322 400 321.5Q400 321 399.75 321Q399.5 321 399.25 320.25Q399 319.5 398 318.75Q397 318 397 317.5Q397 317 392.5 317Q388 317 387.75 317ZM424.25 317Q424 317 424 317.75Q424 318.5 424.25 318.5Q424.5 318.5 424.5 318.75Q424.5 319 425.75 319Q427 319 427 319.25Q427 319.5 427.5 319.75Q428 320 428 320.75Q428 321.5 428.25 321.5Q428.5 321.5 428.5 333.25Q428.5 345 428.25 345Q428 345 428 345.75Q428 346.5 427.75 346.5Q427.5 346.5 427.5 346.75Q427.5 347 426 347Q424.5 347 424.5 347.25Q424.5 347.5 424.25 347.5Q424 347.5 424 348.25Q424 349 437 349Q450 349 450 348.75Q450 348.5 450.25 348.5Q450.5 348.5 450.5 347.25Q450.5 346 450.75 346Q451 346 451 343Q451 340 450 340Q449 340 449 340.75Q449 341.5 448.5 341.75Q448 342 448 342.75Q448 343.5 447.75 343.5Q447.5 343.5 447.25 344.25Q447 345 446.75 345Q446.5 345 446 345.75Q445.5 346.5 445 346.5Q444.5 346.5 444.5 346.75Q444.5 347 439.75 347Q435 347 435 346.75Q435 346.5 434.5 346.5Q434 346.5 434 346Q434 345.5 433.75 345.5Q433.5 345.5 433.5 344.25Q433.5 343 433.25 343Q433 343 433 338.25Q433 333.5 433.25 333.5Q433.5 333.5 433.5 333.25Q433.5 333 436.5 333Q439.5 333 439.5 333.25Q439.5 333.5 440.25 334Q441 334.5 441 335.25Q441 336 441.25 336Q441.5 336 441.5 336.5Q441.5 337 441.75 337Q442 337 442 338Q442 339 442.75 339Q443.5 339 443.5 338.75Q443.5 338.5 443.75 338.5Q444 338.5 444 332.5Q444 326.5 443.75 326.5Q443.5 326.5 443.5 326.25Q443.5 326 442.75 326Q442 326 442 326.75Q442 327.5 441.75 327.5Q441.5 327.5 441.25 328.5Q441 329.5 440.75 329.5Q440.5 329.5 440.25 330Q440 330.5 439.5 330.5Q439 330.5 439 330.75Q439 331 436.25 331Q433.5 331 433.5 330.75Q433.5 330.5 433.25 330.5Q433 330.5 433 325Q433 319.5 433.25 319.5Q433.5 319.5 433.5 319.25Q433.5 319 438.25 319Q443 319 443 319.25Q443 319.5 444 320.25Q445 321 445 321.5Q445 322 445.5 322.25Q446 322.5 446.25 323.5Q446.5 324.5 446.75 324.5Q447 324.5 447 324.75Q447 325 447.75 325Q448.5 325 448.5 324.75Q448.5 324.5 448.75 324.5Q449 324.5 449 324Q449 323.5 448.75 323.5Q448.5 323.5 448.75 320.5Q449 317.5 448.75 317.5Q448.5 317.5 448.5 317.25Q448.5 317 436.5 317Q424.5 317 424.25 317ZM9.5 319.25Q9.5 319 13 319Q16.5 319 16.5 319.25Q16.5 319.5 18 320Q19.5 320.5 19.5 320.75Q19.5 321 21.25 322.5Q23 324 23 324.5Q23 325 23.25 325Q23.5 325 23.5 325.5Q23.5 326 23.75 326Q24 326 24 326.75Q24 327.5 24.25 327.5Q24.5 327.5 24.5 328.25Q24.5 329 24.75 329Q25 329 25 333.5Q25 338 24.75 338Q24.5 338 24.5 338.75Q24.5 339.5 24.25 339.5Q24 339.5 24 340.25Q24 341 23.75 341Q23.5 341 23.25 342Q23 343 22.75 343Q22.5 343 21.25 344.5Q20 346 19.25 346Q18.5 346 18.5 346.25Q18.5 346.5 18 346.5Q17.5 346.5 17.5 346.75Q17.5 347 14.25 347Q11 347 11 346.75Q11 346.5 10.25 346Q9.5 345.5 9.5 344.5Q9.5 343.5 9.25 343.5Q9 343.5 9 331.5Q9 319.5 9.25 319.5Q9.5 319.5 9.5 319.25ZM314.5 319.25Q314.5 319 317.5 319Q320.5 319 320.5 319.25Q320.5 319.5 321.5 319.75Q322.5 320 322.75 320.75Q323 321.5 323.5 321.75Q324 322 324 325.5Q324 329 323.5 329.25Q323 329.5 323 330Q323 330.5 322.75 330.5Q322.5 330.5 322 331.25Q321.5 332 320.75 332Q320 332 320 332.25Q320 332.5 319.5 332.5Q319 332.5 319 332.75Q319 333 316.75 333Q314.5 333 314.5 332.75Q314.5 332.5 314.25 332.5Q314 332.5 314 326Q314 319.5 314.25 319.5Q314.5 319.5 314.5 319.25ZM368 319.25Q368 319 370.25 319Q372.5 319 372.5 319.25Q372.5 319.5 373.5 319.75Q374.5 320 374.75 320.5Q375 321 375.5 321Q376 321 376 321.25Q376 321.5 376.5 321.75Q377 322 377 322.5Q377 323 377.5 323.25Q378 323.5 378.25 324.5Q378.5 325.5 378.75 325.5Q379 325.5 379 326.5Q379 327.5 379.25 327.5Q379.5 327.5 379.5 328.5Q379.5 329.5 379.75 329.5Q380 329.5 380 333Q380 336.5 379.75 336.5Q379.5 336.5 379.25 338.5Q379 340.5 378.75 340.5Q378.5 340.5 378.25 341.5Q378 342.5 377.5 342.75Q377 343 377 343.5Q377 344 376.75 344Q376.5 344 376.25 344.5Q376 345 375.5 345Q375 345 374.75 345.5Q374.5 346 374 346Q373.5 346 373.5 346.25Q373.5 346.5 373 346.5Q372.5 346.5 372.5 346.75Q372.5 347 370.25 347Q368 347 368 346.75Q368 346.5 366.75 346.25Q365.5 346 365.25 345.5Q365 345 364.5 345Q364 345 364 344.5Q364 344 363.25 343.5Q362.5 343 362.5 342.5Q362.5 342 362.25 342Q362 342 362 341.5Q362 341 361.75 341Q361.5 341 361.5 340.5Q361.5 340 361.25 340Q361 340 360.75 336.75Q360.5 333.5 360.25 333.5Q360 333.5 360 333Q360 332.5 360.25 332.5Q360.5 332.5 360.5 330.75Q360.5 329 360.75 329Q361 329 361 327.5Q361 326 361.25 326Q361.5 326 362 324.5Q362.5 323 362.75 323Q363 323 364.25 321.5Q365.5 320 366.75 319.75Q368 319.5 368 319.25ZM46 325.25Q46 325 46.5 325Q47 325 47 326Q47 327 47.5 327.25Q48 327.5 48 328.5Q48 329.5 48.5 329.75Q49 330 49 331Q49 332 49.5 332.25Q50 332.5 50 333.5Q50 334.5 50.5 334.75Q51 335 50.75 335.5Q50.5 336 46.25 336Q42 336 42 335Q42 334 42.25 334Q42.5 334 42.5 333.5Q42.5 333 42.75 333Q43 333 43 332.25Q43 331.5 43.25 331.5Q43.5 331.5 43.75 330.25Q44 329 44.25 329Q44.5 329 44.5 328.5Q44.5 328 44.75 328Q45 328 45 327.25Q45 326.5 45.25 326.5Q45.5 326.5 45.5 326Q45.5 325.5 45.75 325.5Q46 325.5 46 325.25ZM162.25 394Q162 394 162 394.5Q162 395 162.75 395Q163.5 395 163.5 395.25Q163.5 395.5 163.75 395.5Q164 395.5 164 401.5Q164 407.5 163.75 407.5Q163.5 407.5 163.5 407.75Q163.5 408 162.75 408Q162 408 162 408.5Q162 409 165 409Q168 409 168 408.5Q168 408 167.5 408Q167 408 167 407.75Q167 407.5 166.5 407.25Q166 407 166 404.75Q166 402.5 166.25 402.5Q166.5 402.5 166.5 402.25Q166.5 402 168.25 402Q170 402 170.25 401.5Q170.5 401 171 401Q171.5 401 171.5 400.75Q171.5 400.5 172.25 400Q173 399.5 173 397.75Q173 396 172.75 396Q172.5 396 172.25 395.5Q172 395 171.5 395Q171 395 170.75 394.5Q170.5 394 166.5 394Q162.5 394 162.25 394ZM178.25 394Q178 394 178 394.25Q178 394.5 177.25 394.75Q176.5 395 176.25 395.75Q176 396.5 175.75 396.5Q175.5 396.5 175.5 398Q175.5 399.5 175.75 399.5Q176 399.5 176 400Q176 400.5 176.75 400.75Q177.5 401 177.75 401.5Q178 402 179 402Q180 402 180.25 402.5Q180.5 403 181.25 403Q182 403 182 403.5Q182 404 182.5 404.25Q183 404.5 183 405.5Q183 406.5 182.5 406.75Q182 407 182 407.5Q182 408 180.25 408Q178.5 408 178.5 407.75Q178.5 407.5 177.75 407.25Q177 407 177 406.5Q177 406 176.5 405.75Q176 405.5 176 404.75Q176 404 175.5 404Q175 404 175 406.5Q175 409 175.5 409Q176 409 176.25 408.5Q176.5 408 177.25 408.25Q178 408.5 178 408.75Q178 409 180 409Q182 409 182 408.75Q182 408.5 182.75 408.25Q183.5 408 183.5 407.75Q183.5 407.5 184 407.25Q184.5 407 184.5 406.5Q184.5 406 184.75 406Q185 406 185 404.75Q185 403.5 184.75 403.5Q184.5 403.5 184.5 403Q184.5 402.5 184.25 402.5Q184 402.5 183.5 401.75Q183 401 182.25 401Q181.5 401 181.5 400.75Q181.5 400.5 181 400.5Q180.5 400.5 180.5 400.25Q180.5 400 179.75 400Q179 400 179 399.75Q179 399.5 178.25 399Q177.5 398.5 177.5 397.25Q177.5 396 177.75 396Q178 396 178.25 395.5Q178.5 395 179.75 395Q181 395 181 395.25Q181 395.5 182 396.25Q183 397 183 397.75Q183 398.5 183.5 398.5Q184 398.5 184 396.5Q184 394.5 183.25 394.5Q182.5 394.5 182.5 394.75Q182.5 395 182.25 395Q182 395 181.75 394.5Q181.5 394 180 394Q178.5 394 178.25 394ZM186.25 394Q186 394 186 394.5Q186 395 186.5 395Q187 395 187 395.25Q187 395.5 187.5 395.75Q188 396 188 401.75Q188 407.5 187.75 407.5Q187.5 407.5 187.5 407.75Q187.5 408 186.75 408Q186 408 186 408.5Q186 409 189 409Q192 409 192 408.5Q192 408 191.5 408Q191 408 191 407.75Q191 407.5 190.5 407.25Q190 407 190 401.5Q190 396 190.25 396Q190.5 396 190.75 395.5Q191 395 191.5 395Q192 395 192 394.5Q192 394 189.25 394Q186.5 394 186.25 394ZM200.25 394Q200 394 200 394.25Q200 394.5 199 394.75Q198 395 198 395.25Q198 395.5 197 396.25Q196 397 196 397.5Q196 398 195.5 398.25Q195 398.5 195 401.5Q195 404.5 195.25 404.5Q195.5 404.5 195.75 405.5Q196 406.5 196.25 406.5Q196.5 406.5 197 407.25Q197.5 408 198.5 408.25Q199.5 408.5 199.5 408.75Q199.5 409 201.5 409Q203.5 409 203.75 408.5Q204 408 204.75 408Q205.5 408 205.5 407.75Q205.5 407.5 205.75 407.5Q206 407.5 206 407Q206 406.5 205.5 406.5Q205 406.5 205 406.75Q205 407 204.5 407Q204 407 203.75 407.5Q203.5 408 202.25 408Q201 408 201 407.75Q201 407.5 200 407.25Q199 407 199 406.5Q199 406 198.5 405.75Q198 405.5 198 404.75Q198 404 197.75 404Q197.5 404 197.5 403.5Q197.5 403 197.25 403Q197 403 197 401.5Q197 400 197.25 400Q197.5 400 197.75 398.5Q198 397 198.25 397Q198.5 397 199.25 396Q200 395 201.5 395Q203 395 203 395.25Q203 395.5 204 396.25Q205 397 205.25 398Q205.5 399 206 399.25Q206.5 399.5 206.5 397Q206.5 394.5 203.5 394.25Q200.5 394 200.25 394ZM213.25 394Q213 394 213 394.25Q213 394.5 212 394.75Q211 395 211 395.25Q211 395.5 210 396.25Q209 397 209 397.5Q209 398 208.5 398.25Q208 398.5 208 401.5Q208 404.5 208.5 404.75Q209 405 209 405.5Q209 406 209.25 406Q209.5 406 210.25 407Q211 408 211.5 408Q212 408 212 408.25Q212 408.5 212.5 408.5Q213 408.5 213 408.75Q213 409 215 409Q217 409 217.25 408.5Q217.5 408 218.25 408Q219 408 219 407.75Q219 407.5 219.5 407.25Q220 407 220 406.5Q220 406 220.5 405.75Q221 405.5 221 404.75Q221 404 221.25 404Q221.5 404 221.5 403.5Q221.5 403 221.75 403Q222 403 222 401.75Q222 400.5 221.75 400.5Q221.5 400.5 221.5 399.75Q221.5 399 221.25 399Q221 399 221 398.25Q221 397.5 220.5 397.25Q220 397 220 396.5Q220 396 219.75 396Q219.5 396 219.25 395.5Q219 395 218.25 395Q217.5 395 217.25 394.5Q217 394 215.25 394Q213.5 394 213.25 394ZM224.25 394Q224 394 224 394.5Q224 395 224.5 395Q225 395 225 395.25Q225 395.5 225.5 395.75Q226 396 226 401.75Q226 407.5 225.75 407.5Q225.5 407.5 225.5 407.75Q225.5 408 224.75 408Q224 408 224 408.5Q224 409 229.5 409Q235 409 235 408.75Q235 408.5 235.25 408.5Q235.5 408.5 235.5 407Q235.5 405.5 235.75 405.5Q236 405.5 236 405.25Q236 405 236.5 405Q237 405 237 405.5Q237 406 237.25 406Q237.5 406 238.25 407Q239 408 239.5 408Q240 408 240 408.25Q240 408.5 240.5 408.5Q241 408.5 241 408.75Q241 409 243 409Q245 409 245.25 408.5Q245.5 408 246.25 408Q247 408 247 407.75Q247 407.5 247.5 407.25Q248 407 248 406.5Q248 406 248.5 405.75Q249 405.5 249 404.75Q249 404 249.25 404Q249.5 404 249.5 403.5Q249.5 403 249.75 403Q250 403 250 401.75Q250 400.5 249.75 400.5Q249.5 400.5 249.5 399.75Q249.5 399 249.25 399Q249 399 249 398.25Q249 397.5 248.5 397.25Q248 397 248 396.5Q248 396 247.75 396Q247.5 396 247.25 395.5Q247 395 246.25 395Q245.5 395 245.25 394.5Q245 394 243 394Q241 394 241 394.25Q241 394.5 240 394.75Q239 395 239 395.25Q239 395.5 238 396.25Q237 397 237 397.5Q237 398 236.5 398.25Q236 398.5 236 401.25Q236 404 235 404.75Q234 405.5 234 406Q234 406.5 233.75 406.5Q233.5 406.5 233 407.25Q232.5 408 230.75 408Q229 408 229 407.75Q229 407.5 228.5 407.25Q228 407 228 401.5Q228 396 228.25 396Q228.5 396 228.75 395.5Q229 395 229.5 395Q230 395 230 394.5Q230 394 227.25 394Q224.5 394 224.25 394ZM257.25 394Q257 394 257 394.25Q257 394.5 256 394.75Q255 395 255 395.25Q255 395.5 254 396.25Q253 397 253 397.5Q253 398 252.75 398Q252.5 398 252.5 398.5Q252.5 399 252.25 399Q252 399 252 401.75Q252 404.5 252.5 404.75Q253 405 253 405.5Q253 406 253.25 406Q253.5 406 254.25 407Q255 408 255.5 408Q256 408 256 408.25Q256 408.5 256.5 408.5Q257 408.5 257 408.75Q257 409 259.25 409Q261.5 409 261.5 408.75Q261.5 408.5 262 408.5Q262.5 408.5 262.5 408.25Q262.5 408 263.25 408Q264 408 264 406Q264 404 264.25 404Q264.5 404 264.75 403.5Q265 403 265.5 403Q266 403 266 402.5Q266 402 263 402Q260 402 260 402.5Q260 403 260.75 403Q261.5 403 261.5 403.25Q261.5 403.5 261.75 403.5Q262 403.5 262 405.25Q262 407 261.75 407Q261.5 407 261.5 407.5Q261.5 408 259.5 408Q257.5 408 257.25 407.5Q257 407 256.5 407Q256 407 256 406.5Q256 406 255.5 405.75Q255 405.5 254.75 404Q254.5 402.5 254.25 402.5Q254 402.5 254 401.5Q254 400.5 254.25 400.5Q254.5 400.5 254.75 398.75Q255 397 255.25 397Q255.5 397 255.75 396.5Q256 396 256.5 396Q257 396 257.25 395.5Q257.5 395 259 395Q260.5 395 260.75 395.5Q261 396 261.75 396.25Q262.5 396.5 262.75 397.5Q263 398.5 263.5 398.75Q264 399 264 396.5Q264 394 263.5 394Q263 394 262.75 394.5Q262.5 395 261.75 394.75Q261 394.5 261 394.25Q261 394 259.25 394Q257.5 394 257.25 394ZM267.25 394Q267 394 267 394.5Q267 395 267.5 395Q268 395 268 395.25Q268 395.5 268.5 395.75Q269 396 269 401.75Q269 407.5 268.75 407.5Q268.5 407.5 268.5 407.75Q268.5 408 267.75 408Q267 408 267 408.5Q267 409 273 409Q279 409 279 408.5Q279 408 278.25 408Q277.5 408 277.5 407.75Q277.5 407.5 277.25 407.5Q277 407.5 277 406.5Q277 405.5 277.5 405.25Q278 405 278 404.5Q278 404 280.5 404Q283 404 283.25 404.75Q283.5 405.5 283.75 405.5Q284 405.5 284 406.75Q284 408 283.5 408Q283 408 283 408.5Q283 409 285.75 409Q288.5 409 288.5 408.5Q288.5 408 288 408Q287.5 408 287.5 407.75Q287.5 407.5 286.75 407Q286 406.5 286 405.5Q286 404.5 285.5 404.25Q285 404 285 403Q285 402 284.75 402Q284.5 402 284.5 401.5Q284.5 401 284.25 401Q284 401 284 400.25Q284 399.5 283.75 399.5Q283.5 399.5 283.5 399Q283.5 398.5 283.25 398.5Q283 398.5 283 397.75Q283 397 282.75 397Q282.5 397 282 395.5Q281.5 394 280.75 394.5Q280 395 280 396Q280 397 279.5 397.25Q279 397.5 279 398.5Q279 399.5 278.5 399.75Q278 400 278 401.25Q278 402.5 277.5 402.75Q277 403 277 403.75Q277 404.5 276.75 404.5Q276.5 404.5 276.25 405.5Q276 406.5 275.75 406.5Q275.5 406.5 275 407.25Q274.5 408 273.25 408Q272 408 272 407.75Q272 407.5 271.5 407.25Q271 407 271 401.5Q271 396 271.25 396Q271.5 396 271.75 395.5Q272 395 272.5 395Q273 395 273 394.5Q273 394 270.25 394Q267.5 394 267.25 394ZM166.5 395.25Q166.5 395 167.75 395Q169 395 169 395.25Q169 395.5 169.75 396Q170.5 396.5 170.5 397.75Q170.5 399 170.25 399Q170 399 170 399.5Q170 400 169.75 400Q169.5 400 169.25 400.5Q169 401 167.75 401Q166.5 401 166.5 400.75Q166.5 400.5 166.25 400.5Q166 400.5 166 398Q166 395.5 166.25 395.5Q166.5 395.5 166.5 395.25ZM213 395.25Q213 395 214.75 395Q216.5 395 216.75 395.5Q217 396 217.5 396Q218 396 218 396.5Q218 397 218.25 397Q218.5 397 218.5 397.5Q218.5 398 218.75 398Q219 398 219 401.5Q219 405 218.75 405Q218.5 405 218.25 406Q218 407 217.5 407Q217 407 216.75 407.5Q216.5 408 214.75 408Q213 408 213 407.75Q213 407.5 212 406.75Q211 406 210.75 404.25Q210.5 402.5 210.25 402.5Q210 402.5 210.5 399.75Q211 397 212 396.25Q213 395.5 213 395.25ZM241 395.25Q241 395 242.75 395Q244.5 395 244.75 395.5Q245 396 245.5 396Q246 396 246 396.5Q246 397 246.25 397Q246.5 397 246.5 397.5Q246.5 398 246.75 398Q247 398 247 401.5Q247 405 246.75 405Q246.5 405 246.25 406Q246 407 245.5 407Q245 407 244.75 407.5Q244.5 408 242.75 408Q241 408 241 407.75Q241 407.5 240 406.75Q239 406 238.75 404.25Q238.5 402.5 238.25 402.5Q238 402.5 238.5 399.75Q239 397 240 396.25Q241 395.5 241 395.25ZM280 398.25Q280 398 280.5 398Q281 398 281 398.75Q281 399.5 281.5 399.75Q282 400 282 401Q282 402 282.25 402Q282.5 402 282.25 402.5Q282 403 280.5 403Q279 403 279 402.75Q279 402.5 278.75 402.5Q278.5 402.5 278.5 402.25Q278.5 402 278.75 402Q279 402 279 401Q279 400 279.5 399.75Q280 399.5 280 399Q280 398.5 280 398.25ZM95.75 434Q95.5 434 95.5 434.5Q95.5 435 96 435.25Q96.5 435.5 96.5 440Q96.5 444.5 96 444.75Q95.5 445 95.5 445.5Q95.5 446 98.25 446Q101 446 101 445.75Q101 445.5 101.25 445.5Q101.5 445.5 101.5 445.25Q101.5 445 100 445Q98.5 445 98.5 444.75Q98.5 444.5 98.25 444.5Q98 444.5 98 439.75Q98 435 100 435Q102 435 102 434.75Q102 434.5 101.5 434.5Q101 434.5 101 434.25Q101 434 98.5 434Q96 434 95.75 434ZM108.75 434Q108.5 434 108.5 434.5Q108.5 435 109 435.25Q109.5 435.5 109.5 440Q109.5 444.5 109 444.75Q108.5 445 108.5 445.5Q108.5 446 112.5 446Q116.5 446 116.5 445.75Q116.5 445.5 117 445.5Q117.5 445.5 117.25 444.75Q117 444 116.75 444Q116.5 444 116.25 444.5Q116 445 113.75 445Q111.5 445 111.5 444.75Q111.5 444.5 111.25 444.5Q111 444.5 111 442.25Q111 440 112.5 440Q114 440 114 440.5Q114 441 114.5 441Q115 441 115 439.5Q115 438 114.5 438Q114 438 114 438.5Q114 439 112.5 439Q111 439 111 437Q111 435 113 435Q115 435 115 435.25Q115 435.5 115.5 435.5Q116 435.5 116 436Q116 436.5 116.25 436.5Q116.5 436.5 116.5 435.5Q116.5 434.5 116.25 434.5Q116 434.5 116 434.25Q116 434 112.5 434Q109 434 108.75 434ZM122.25 434Q122 434 121.75 434.5Q121.5 435 123 435Q124.5 435 124.5 435.5Q124.5 436 124.75 436Q125 436 125.25 436.5Q125.5 437 125.75 437Q126 437 126 435.75Q126 434.5 124.75 434.5Q123.5 434.5 123.5 434.25Q123.5 434 123 434Q122.5 434 122.25 434ZM129.75 434Q129.5 434 129.5 434.5Q129.5 435 130 435.25Q130.5 435.5 130.5 440Q130.5 444.5 130 444.75Q129.5 445 129.5 445.5Q129.5 446 133.5 446Q137.5 446 137.5 445.75Q137.5 445.5 138 445.25Q138.5 445 138.25 444.5Q138 444 137.75 444Q137.5 444 137.25 444.5Q137 445 134.75 445Q132.5 445 132.5 444.75Q132.5 444.5 132.25 444.5Q132 444.5 132 442.25Q132 440 133.5 440Q135 440 135 440.5Q135 441 135.5 441Q136 441 136 439.5Q136 438 135.5 438Q135 438 135 438.5Q135 439 133.5 439Q132 439 132 437Q132 435 134 435Q136 435 136 435.25Q136 435.5 136.5 435.5Q137 435.5 137 436Q137 436.5 137.25 436.5Q137.5 436.5 137.5 435.5Q137.5 434.5 137.25 434.5Q137 434.5 137 434.25Q137 434 133.5 434Q130 434 129.75 434ZM140.25 434Q140 434 139.75 434.5Q139.5 435 140 435Q140.5 435 140.5 435.25Q140.5 435.5 141 435.75Q141.5 436 141.5 436.5Q141.5 437 142 436.75Q142.5 436.5 142.5 436.75Q142.5 437 143.25 437.5Q144 438 144 438.5Q144 439 144.75 439.5Q145.5 440 145.5 440.5Q145.5 441 146.25 441.5Q147 442 147 442.5Q147 443 147.5 443.25Q148 443.5 148 444Q148 444.5 148.25 444.5Q148.5 444.5 148.75 445Q149 445.5 149.5 445.5Q150 445.5 149.75 443.5Q149.5 441.5 149.25 441.5Q149 441.5 149 442Q149 442.5 148.75 442.5Q148.5 442.5 148.5 442.25Q148.5 442 147.75 441.5Q147 441 147 440.5Q147 440 146.5 439.75Q146 439.5 146 439Q146 438.5 145 437.75Q144 437 144 436.5Q144 436 143.5 435.75Q143 435.5 143 435Q143 434.5 142.75 434.5Q142.5 434.5 142.5 434.25Q142.5 434 141.5 434Q140.5 434 140.25 434ZM147.75 434Q147.5 434 147.5 434.5Q147.5 435 148 435Q148.5 435 149 436Q149.5 437 149.75 437Q150 437 150 436.25Q150 435.5 150.25 435.5Q150.5 435.5 150.5 435.25Q150.5 435 151.75 435Q153 435 153 435.25Q153 435.5 153.25 435.5Q153.5 435.5 153.75 436.75Q154 438 154.25 438Q154.5 438 154.5 438.5Q154.5 439 154.75 439Q155 439 155 439.75Q155 440.5 155.25 440.5Q155.5 440.5 155.5 441Q155.5 441.5 155.75 441.5Q156 441.5 156 442.25Q156 443 156.25 443Q156.5 443 156.5 443.5Q156.5 444 156.75 444Q157 444 157 444.75Q157 445.5 157.5 445.5Q158 445.5 158.25 444.25Q158.5 443 157.75 442.5Q157 442 157 441.25Q157 440.5 156.75 440.5Q156.5 440.5 156.25 439.25Q156 438 155.75 438Q155.5 438 155.5 437.5Q155.5 437 155.25 437Q155 437 155 436Q155 435 155.5 435Q156 435 156 434.5Q156 434 152 434Q148 434 147.75 434ZM160.25 434Q160 434 160 434.5Q160 435 160.5 435Q161 435 161 435.75Q161 436.5 161.5 436.5Q162 436.5 162 436Q162 435.5 162.5 435.25Q163 435 163 434.5Q163 434 161.75 434Q160.5 434 160.25 434ZM169.75 434Q169.5 434 169.5 434.25Q169.5 434.5 169 434.5Q168.5 434.5 168.5 434.75Q168.5 435 170.25 435Q172 435 171.75 434.5Q171.5 434 170.75 434Q170 434 169.75 434ZM178.75 434Q178.5 434 178.5 434.5Q178.5 435 179 435.25Q179.5 435.5 179.5 440Q179.5 444.5 179 444.75Q178.5 445 178.5 445.5Q178.5 446 182.5 446Q186.5 446 186.5 445.75Q186.5 445.5 186.75 445.5Q187 445.5 187 444.25Q187 443 186.5 443Q186 443 186 443.5Q186 444 185.75 444Q185.5 444 185.25 444.5Q185 445 183 445Q181 445 181 440.25Q181 435.5 181.75 435.25Q182.5 435 182.5 434.75Q182.5 434.5 182.25 434.5Q182 434.5 182 434.25Q182 434 180.5 434Q179 434 178.75 434ZM187.75 434Q187.5 434 187.25 434.5Q187 435 187.5 435Q188 435 188.25 435.75Q188.5 436.5 188.75 436.5Q189 436.5 189 437.25Q189 438 189.25 438Q189.5 438 189.5 438.5Q189.5 439 189.75 439Q190 439 190 439.75Q190 440.5 190.25 440.5Q190.5 440.5 190.5 441Q190.5 441.5 190.75 441.5Q191 441.5 191 442.25Q191 443 191.25 443Q191.5 443 191.5 443.5Q191.5 444 191.75 444Q192 444 192 444.75Q192 445.5 192.5 445.5Q193 445.5 193.25 444.25Q193.5 443 192.75 442.5Q192 442 192 441.25Q192 440.5 191.75 440.5Q191.5 440.5 191.25 439.25Q191 438 190.75 438Q190.5 438 190.5 437.5Q190.5 437 190.25 437Q190 437 190 436Q190 435 190.5 435Q191 435 191 434.5Q191 434 189.5 434Q188 434 187.75 434ZM195.25 434Q195 434 195 434.5Q195 435 195.5 435Q196 435 196 435.75Q196 436.5 196.5 436.5Q197 436.5 197 436Q197 435.5 197.5 435.25Q198 435 198 434.5Q198 434 196.75 434Q195.5 434 195.25 434ZM200.75 434Q200.5 434 200.5 434.5Q200.5 435 201 435.25Q201.5 435.5 201.5 440Q201.5 444.5 201 444.75Q200.5 445 200.5 445.5Q200.5 446 202.5 446Q204.5 446 204.5 445.5Q204.5 445 203.75 444.75Q203 444.5 203 440Q203 435.5 203.75 435.25Q204.5 435 204.5 434.5Q204.5 434 202.75 434Q201 434 200.75 434ZM207.25 434Q207 434 207 434.5Q207 435 207.5 435Q208 435 208.25 435.75Q208.5 436.5 208.75 436.5Q209 436.5 209 436.25Q209 436 209.5 436.25Q210 436.5 210 437.25Q210 438 210.5 438.25Q211 438.5 211 439.5Q211 440.5 211.25 440.5Q211.5 440.5 211.5 441Q211.5 441.5 211.75 441.5Q212 441.5 212 442.25Q212 443 212.25 443Q212.5 443 212.5 443.75Q212.5 444.5 212.75 444.5Q213 444.5 213 444.75Q213 445 213.5 445Q214 445 214 444Q214 443 214.25 443Q214.5 443 214.5 442.75Q214.5 442.5 213.75 442.5Q213 442.5 213 441.5Q213 440.5 212.75 440.5Q212.5 440.5 212.25 439.25Q212 438 211.75 438Q211.5 438 211.5 437.5Q211.5 437 211.25 437Q211 437 211 436Q211 435 210.75 435Q210.5 435 210.25 434.5Q210 434 208.75 434Q207.5 434 207.25 434ZM217.75 434Q217.5 434 217.5 434.25Q217.5 434.5 217.25 434.5Q217 434.5 217 435.25Q217 436 217.5 436.25Q218 436.5 218 440.25Q218 444 217.75 444Q217.5 444 217.5 444.5Q217.5 445 217 445Q216.5 445 216.5 445.5Q216.5 446 218.5 446Q220.5 446 220.5 445.5Q220.5 445 219.75 444.75Q219 444.5 219 440Q219 435.5 219.75 435.25Q220.5 435 220.5 434.5Q220.5 434 219.25 434Q218 434 217.75 434ZM223.75 434Q223.5 434 223.5 434.5Q223.5 435 224 435.25Q224.5 435.5 224.5 440Q224.5 444.5 224 444.75Q223.5 445 223.5 445.5Q223.5 446 227.5 446Q231.5 446 231.5 445.75Q231.5 445.5 232 445.25Q232.5 445 232.25 444.5Q232 444 231.75 444Q231.5 444 231.25 444.5Q231 445 228.75 445Q226.5 445 226.5 444.75Q226.5 444.5 226.25 444.5Q226 444.5 226 442.25Q226 440 227.5 440Q229 440 229 440.5Q229 441 229.5 441Q230 441 230 439.5Q230 438 229.5 438Q229 438 229 438.5Q229 439 227.5 439Q226 439 226 437Q226 435 228 435Q230 435 230 435.25Q230 435.5 230.5 435.5Q231 435.5 231 436Q231 436.5 231.25 436.5Q231.5 436.5 231.5 435.5Q231.5 434.5 231.25 434.5Q231 434.5 231 434.25Q231 434 227.5 434Q224 434 223.75 434ZM234.25 434Q234 434 233.75 434.5Q233.5 435 234 435Q234.5 435 234.5 435.25Q234.5 435.5 235 435.75Q235.5 436 235.5 436.5Q235.5 437 236 436.75Q236.5 436.5 236.5 436.75Q236.5 437 237.25 437.5Q238 438 238 438.5Q238 439 238.75 439.5Q239.5 440 239.5 440.5Q239.5 441 240.25 441.5Q241 442 241 442.5Q241 443 241.5 443.25Q242 443.5 242 444Q242 444.5 242.25 444.5Q242.5 444.5 242.75 445Q243 445.5 243.5 445.5Q244 445.5 243.75 443.5Q243.5 441.5 243.25 441.5Q243 441.5 243 442Q243 442.5 242.75 442.5Q242.5 442.5 242.5 442.25Q242.5 442 241.75 441.5Q241 441 241 440.5Q241 440 240.5 439.75Q240 439.5 240 439Q240 438.5 239 437.75Q238 437 238 436.5Q238 436 237.5 435.75Q237 435.5 237 435Q237 434.5 236.75 434.5Q236.5 434.5 236.5 434.25Q236.5 434 235.5 434Q234.5 434 234.25 434ZM241.75 434Q241.5 434 241.5 434.5Q241.5 435 242 435Q242.5 435 243 436Q243.5 437 243.75 437Q244 437 244 436.25Q244 435.5 244.25 435.5Q244.5 435.5 244.5 435.25Q244.5 435 245.25 435Q246 435 246.25 435.75Q246.5 436.5 246.75 436.5Q247 436.5 247 436Q247 435.5 247.5 435.5Q248 435.5 248 435.25Q248 435 249.25 435Q250.5 435 250.5 439.75Q250.5 444.5 249.75 444.75Q249 445 249 445.5Q249 446 251.25 446Q253.5 446 253.5 445.5Q253.5 445 252.75 444.75Q252 444.5 252 439.75Q252 435 253.5 435Q255 435 255 435.5Q255 436 255.5 436Q256 436 256 435.25Q256 434.5 255.75 434.5Q255.5 434.5 255.5 434.25Q255.5 434 251 434Q246.5 434 246.5 434.25Q246.5 434.5 246.25 434.5Q246 434.5 246 434.25Q246 434 244 434Q242 434 241.75 434ZM262.75 434Q262.5 434 262.5 434.25Q262.5 434.5 262 434.5Q261.5 434.5 261.5 434.75Q261.5 435 263.25 435Q265 435 264.75 434.5Q264.5 434 263.75 434Q263 434 262.75 434ZM275.75 434Q275.5 434 275.5 434.5Q275.5 435 276 435.25Q276.5 435.5 276.5 440Q276.5 444.5 276 444.75Q275.5 445 275.5 445.5Q275.5 446 277.25 446Q279 446 279 445.5Q279 445 278.5 444.75Q278 444.5 278 442.25Q278 440 281 440Q284 440 284 442.25Q284 444.5 283.25 444.75Q282.5 445 282.5 445.5Q282.5 446 284.5 446Q286.5 446 286.5 445.5Q286.5 445 286 445Q285.5 445 285.5 444.5Q285.5 444 285.25 444Q285 444 285 440Q285 436 285.25 436Q285.5 436 285.5 435.5Q285.5 435 286 435Q286.5 435 286.5 434.5Q286.5 434 284.5 434Q282.5 434 282.5 434.5Q282.5 435 283.25 435.25Q284 435.5 284 437.25Q284 439 281 439Q278 439 278 437Q278 435 278.5 435Q279 435 279 434.5Q279 434 277.5 434Q276 434 275.75 434ZM289.75 434Q289.5 434 289.25 434.5Q289 435 289.5 435Q290 435 290 435.5Q290 436 290.25 436Q290.5 436 290.5 440Q290.5 444 290.75 444Q291 444 291.25 444.5Q291.5 445 292.5 445.25Q293.5 445.5 293.5 445.75Q293.5 446 294.5 446Q295.5 446 295.5 445.5Q295.5 445 294.25 445Q293 445 293 444.75Q293 444.5 292.5 444.25Q292 444 292 439.5Q292 435 292.5 435Q293 435 293 434.5Q293 434 291.5 434Q290 434 289.75 434ZM296.75 434Q296.5 434 296.5 434.5Q296.5 435 297.25 435.25Q298 435.5 298 436.25Q298 437 298.5 436.75Q299 436.5 299 435.75Q299 435 299.5 435Q300 435 300 434.5Q300 434 298.5 434Q297 434 296.75 434ZM302.75 434Q302.5 434 302.25 434.5Q302 435 302.5 435Q303 435 303.25 435.75Q303.5 436.5 303.75 436.5Q304 436.5 304 436.25Q304 436 304.5 436.25Q305 436.5 305 437.25Q305 438 305.5 438.25Q306 438.5 306 439.5Q306 440.5 306.25 440.5Q306.5 440.5 306.5 441Q306.5 441.5 306.75 441.5Q307 441.5 307 442.25Q307 443 307.25 443Q307.5 443 307.5 443.75Q307.5 444.5 307.75 444.5Q308 444.5 308 444.75Q308 445 308.5 445Q309 445 309 444Q309 443 309.25 443Q309.5 443 309.5 442.75Q309.5 442.5 308.75 442.5Q308 442.5 308 441.5Q308 440.5 307.75 440.5Q307.5 440.5 307.25 439.25Q307 438 306.75 438Q306.5 438 306.5 437.5Q306.5 437 306.25 437Q306 437 306 436Q306 435 305.75 435Q305.5 435 305.25 434.5Q305 434 304 434Q303 434 302.75 434ZM312.75 434Q312.5 434 312.5 434.25Q312.5 434.5 312.25 434.5Q312 434.5 312 435.25Q312 436 312.5 436.25Q313 436.5 313 440.25Q313 444 312.75 444Q312.5 444 312.5 444.5Q312.5 445 312 445Q311.5 445 311.5 445.5Q311.5 446 313.5 446Q315.5 446 315.5 445.5Q315.5 445 314.75 444.75Q314 444.5 314 440Q314 435.5 314.75 435.25Q315.5 435 315.5 434.5Q315.5 434 314.25 434Q313 434 312.75 434ZM330.25 434Q330 434 329.75 434.5Q329.5 435 330 435Q330.5 435 330.5 435.25Q330.5 435.5 331 435.75Q331.5 436 331.5 436.5Q331.5 437 332 436.75Q332.5 436.5 332.5 436.75Q332.5 437 333.25 437.5Q334 438 334 438.5Q334 439 334.75 439.5Q335.5 440 335.5 440.5Q335.5 441 336.25 441.5Q337 442 337 442.5Q337 443 337.5 443.25Q338 443.5 338 444Q338 444.5 338.25 444.5Q338.5 444.5 338.75 445Q339 445.5 339.5 445.5Q340 445.5 339.75 443.5Q339.5 441.5 339.25 441.5Q339 441.5 339 442Q339 442.5 338.75 442.5Q338.5 442.5 338.5 442.25Q338.5 442 337.75 441.5Q337 441 337 440.5Q337 440 336.5 439.75Q336 439.5 336 439Q336 438.5 335 437.75Q334 437 334 436.5Q334 436 333.5 435.75Q333 435.5 333 435Q333 434.5 332.75 434.5Q332.5 434.5 332.5 434.25Q332.5 434 331.5 434Q330.5 434 330.25 434ZM337.75 434Q337.5 434 337.5 434.5Q337.5 435 338 435Q338.5 435 339 436Q339.5 437 339.75 437Q340 437 340 436.25Q340 435.5 340.75 435.25Q341.5 435 341.5 434.5Q341.5 434 339.75 434Q338 434 337.75 434ZM347.75 434Q347.5 434 347.5 434.25Q347.5 434.5 347 434.5Q346.5 434.5 346.5 434.75Q346.5 435 348.25 435Q350 435 349.75 434.5Q349.5 434 348.75 434Q348 434 347.75 434ZM322.75 434.5Q322.5 434.5 322.5 434.75Q322.5 435 322.25 435Q322 435 322 436Q322 437 322.5 437Q323 437 323 437.75Q323 438.5 323.25 438.5Q323.5 438.5 323.5 439Q323.5 439.5 323.75 439.5Q324 439.5 324 440.25Q324 441 322 441Q320 441 320 441.5Q320 442 322.25 442Q324.5 442 324.5 442.25Q324.5 442.5 324.75 442.5Q325 442.5 325 443.25Q325 444 325.25 444Q325.5 444 325.5 444.25Q325.5 444.5 325 444.75Q324.5 445 324.5 445.5Q324.5 446 326.25 446Q328 446 328.25 445.5Q328.5 445 327.75 444.75Q327 444.5 327 444Q327 443.5 326.75 443.5Q326.5 443.5 326.5 443Q326.5 442.5 326.25 442.5Q326 442.5 326 441.75Q326 441 325.75 441Q325.5 441 325.5 440.5Q325.5 440 325.25 440Q325 440 325 439.25Q325 438.5 324.75 438.5Q324.5 438.5 324.25 437.25Q324 436 323.75 436Q323.5 436 323.25 435.25Q323 434.5 322.75 434.5ZM102.25 435Q102 435 102 435.25Q102 435.5 102.75 436Q103.5 436.5 103.5 437Q103.5 437.5 103.75 437.5Q104 437.5 104 440.25Q104 443 103.25 443.5Q102.5 444 102.5 444.5Q102.5 445 103 445Q103.5 445 103.5 444.75Q103.5 444.5 104.25 444Q105 443.5 105.25 442.5Q105.5 441.5 105.75 441.5Q106 441.5 106 440Q106 438.5 105.75 438.5Q105.5 438.5 105.25 437.5Q105 436.5 104.75 436.5Q104.5 436.5 104 435.75Q103.5 435 103 435Q102.5 435 102.25 435ZM120.75 435Q120.5 435 120.5 435.25Q120.5 435.5 120 435.75Q119.5 436 119.5 437.25Q119.5 438.5 119.75 438.5Q120 438.5 120.25 439.25Q120.5 440 121.25 440Q122 440 122 440.25Q122 440.5 123 440.75Q124 441 124 441.25Q124 441.5 124.75 442Q125.5 442.5 125.25 443.75Q125 445 125.25 445Q125.5 445 125.75 444.25Q126 443.5 126.25 443.5Q126.5 443.5 126.5 442.5Q126.5 441.5 126.25 441.5Q126 441.5 125.75 440.75Q125.5 440 125 440Q124.5 440 124.5 439.75Q124.5 439.5 124 439.5Q123.5 439.5 123.5 439.25Q123.5 439 122.75 439Q122 439 122 438.75Q122 438.5 121.25 438Q120.5 437.5 120.75 436.25Q121 435 120.75 435ZM167.25 435Q167 435 167 435.25Q167 435.5 166.5 435.75Q166 436 166 436.5Q166 437 165.5 437.25Q165 437.5 165 439.75Q165 442 165.25 442Q165.5 442 165.5 442.5Q165.5 443 165.75 443Q166 443 166 443.5Q166 444 166.25 444Q166.5 444 166.75 444.5Q167 445 167.5 445Q168 445 168 444.5Q168 444 167.5 443.75Q167 443.5 167 442.75Q167 442 166.75 442Q166.5 442 166.5 440Q166.5 438 166.75 438Q167 438 167 437.25Q167 436.5 167.5 436.25Q168 436 168 435.5Q168 435 167.75 435Q167.5 435 167.25 435ZM172.75 435Q172.5 435 172.5 435.5Q172.5 436 173.25 436.5Q174 437 174 440Q174 443 173.25 443.5Q172.5 444 172.5 444.5Q172.5 445 173 445Q173.5 445 173.5 444.75Q173.5 444.5 174.25 444Q175 443.5 175.25 442.25Q175.5 441 175.75 441Q176 441 175.75 439.25Q175.5 437.5 175.25 437.5Q175 437.5 175 437Q175 436.5 174 435.75Q173 435 172.75 435ZM260.25 435Q260 435 260 435.25Q260 435.5 259.5 435.75Q259 436 259 436.5Q259 437 258.5 437.25Q258 437.5 258 439.75Q258 442 258.25 442Q258.5 442 258.5 442.5Q258.5 443 258.75 443Q259 443 259 443.5Q259 444 259.25 444Q259.5 444 259.75 444.5Q260 445 260.5 445Q261 445 261 444.5Q261 444 260.5 443.75Q260 443.5 260 442.75Q260 442 259.75 442Q259.5 442 259.5 440Q259.5 438 259.75 438Q260 438 260 437.25Q260 436.5 260.5 436.25Q261 436 261 435.5Q261 435 260.75 435Q260.5 435 260.25 435ZM265.75 435Q265.5 435 265.5 435.5Q265.5 436 266.25 436.5Q267 437 267 440Q267 443 266.25 443.5Q265.5 444 265.5 444.5Q265.5 445 266 445Q266.5 445 266.5 444.75Q266.5 444.5 267.25 444Q268 443.5 268.25 442.25Q268.5 441 268.75 441Q269 441 268.75 439.25Q268.5 437.5 268.25 437.5Q268 437.5 268 437Q268 436.5 267 435.75Q266 435 265.75 435ZM345.25 435Q345 435 345 435.25Q345 435.5 344.5 435.75Q344 436 344 436.5Q344 437 343.5 437.25Q343 437.5 343 439.75Q343 442 343.25 442Q343.5 442 343.5 442.5Q343.5 443 343.75 443Q344 443 344 443.5Q344 444 344.25 444Q344.5 444 344.75 444.5Q345 445 345.5 445Q346 445 346 444.5Q346 444 345.5 443.75Q345 443.5 345 442.75Q345 442 344.75 442Q344.5 442 344.5 440Q344.5 438 344.75 438Q345 438 345 437.25Q345 436.5 345.5 436.25Q346 436 346 435.5Q346 435 345.75 435Q345.5 435 345.25 435ZM350.75 435Q350.5 435 350.5 435.5Q350.5 436 351.25 436.5Q352 437 352 440Q352 443 351.25 443.5Q350.5 444 350.5 444.5Q350.5 445 351 445Q351.5 445 351.5 444.75Q351.5 444.5 352.25 444Q353 443.5 353.25 442.25Q353.5 441 353.75 441Q354 441 353.75 439.25Q353.5 437.5 353.25 437.5Q353 437.5 353 437Q353 436.5 352 435.75Q351 435 350.75 435ZM119.25 443Q119 443 119 444.25Q119 445.5 120.25 445.5Q121.5 445.5 121.5 445.75Q121.5 446 122.5 446Q123.5 446 123.75 445.5Q124 445 122.5 445Q121 445 121 444.75Q121 444.5 120.5 444.25Q120 444 120 443.5Q120 443 119.75 443Q119.5 443 119.25 443ZM141.75 443.5Q141.5 443.5 141.25 444.25Q141 445 140.5 445Q140 445 140 445.5Q140 446 141.75 446Q143.5 446 143.5 445.5Q143.5 445 142.75 444.75Q142 444.5 142 444Q142 443.5 141.75 443.5ZM208.75 443.5Q208.5 443.5 208.25 444.25Q208 445 207.5 445Q207 445 207 445.5Q207 446 208.75 446Q210.5 446 210.5 445.5Q210.5 445 209.75 444.75Q209 444.5 209 444Q209 443.5 208.75 443.5ZM235.75 443.5Q235.5 443.5 235.25 444.25Q235 445 234.5 445Q234 445 234 445.5Q234 446 235.75 446Q237.5 446 237.5 445.5Q237.5 445 237.25 445Q237 445 236.5 444.25Q236 443.5 235.75 443.5ZM303.75 443.5Q303.5 443.5 303.25 444.25Q303 445 302.5 445Q302 445 302 445.5Q302 446 303.75 446Q305.5 446 305.5 445.5Q305.5 445 304.75 444.75Q304 444.5 304 444Q304 443.5 303.75 443.5ZM331.75 443.5Q331.5 443.5 331.25 444.25Q331 445 330.5 445Q330 445 330 445.5Q330 446 331.75 446Q333.5 446 333.5 445.5Q333.5 445 333.25 445Q333 445 332.5 444.25Q332 443.5 331.75 443.5ZM318.75 444Q318.5 444 318.25 444.5Q318 445 317.5 445Q317 445 317.25 445.5Q317.5 446 319 446Q320.5 446 320.5 445.5Q320.5 445 320 445Q319.5 445 319.25 444.5Q319 444 318.75 444ZM168.75 445Q168.5 445 168.5 445.25Q168.5 445.5 169 445.5Q169.5 445.5 169.5 445.75Q169.5 446 170.5 446Q171.5 446 171.75 445.5Q172 445 170.5 445Q169 445 168.75 445ZM261.75 445Q261.5 445 261.5 445.25Q261.5 445.5 262 445.5Q262.5 445.5 262.5 445.75Q262.5 446 263.5 446Q264.5 446 264.75 445.5Q265 445 263.5 445Q262 445 261.75 445ZM346.75 445Q346.5 445 346.5 445.25Q346.5 445.5 347 445.5Q347.5 445.5 347.5 445.75Q347.5 446 348.5 446Q349.5 446 349.75 445.5Q350 445 348.5 445Q347 445 346.75 445Z"></path></g><rect x="8" y="372.6" width="435" height="0.9" fill="#B9B2A6"></rect></svg>